PathFileType        4      (X/Y/Z)      C:\Users\pc\Desktop\IMUTRC\Sujet_03\Sujet_03_velo_60.trc         
DataRate	CameraRate	NumFrames	NumMarkers	Units	OrigDataRate	OrigDataStartFrame	OrigNumFrames
60.0	60.0	4	64	mm	60.0	813	929
Frame#	Time	pHipOrigin			pRightASI			pLeftASI			pRightCSI			pLeftCSI			pRightIschialTub			pLeftIschialTub			pSacrum			pL5SpinalProcess			pL3SpinalProcess			pT12SpinalProcess			pIJ			pT4SpinalProcess			pT8SpinalProcess			pPX			pC7SpinalProcess			pTopOfHead			pRightAuricularis			pLeftAuricularis			pBackOfHead			pRightAcromion			pLeftAcromion			pRightArmLatEpicondyle			pRightArmMedEpicondyle			pLeftArmLatEpicondyle			pLeftArmMedEpicondyle			pRightUlnarStyloid			pRightRadialStyloid			pRightOlecranon			pLeftUlnarStyloid			pLeftRadialStyloid			pLeftOlecranon			pRightTopOfHand			pRightPinky			pRightBallHand			pLeftTopOfHand			pLeftPinky			pLeftBallHand			pRightGreaterTrochanter			pRightKneeLatEpicondyle			pRightKneeMedEpicondyle			pRightPatella			pLeftGreaterTrochanter			pLeftKneeLatEpicondyle			pLeftKneeMedEpicondyle			pLeftPatella			pRightTibialTub			pRightLatMalleolus			pRightMedMalleolus			pLeftTibialTub			pLeftLatMalleolus			pLeftMedMalleolus			pRightHeelFoot			pRightFirstMetatarsal			pRightFifthMetatarsal			pRightPivotFoot			pRightHeelCenter			pRightToe			pLeftHeelFoot			pLeftFirstMetatarsal			pLeftFifthMetatarsal			pLeftPivotFoot			pLeftHeelCenter			pLeftToe			
		X1	Y1	Z1	X2	Y2	Z2	X3	Y3	Z3	X4	Y4	Z4	X5	Y5	Z5	X6	Y6	Z6	X7	Y7	Z7	X8	Y8	Z8	X9	Y9	Z9	X10	Y10	Z10	X11	Y11	Z11	X12	Y12	Z12	X13	Y13	Z13	X14	Y14	Z14	X15	Y15	Z15	X16	Y16	Z16	X17	Y17	Z17	X18	Y18	Z18	X19	Y19	Z19	X20	Y20	Z20	X21	Y21	Z21	X22	Y22	Z22	X23	Y23	Z23	X24	Y24	Z24	X25	Y25	Z25	X26	Y26	Z26	X27	Y27	Z27	X28	Y28	Z28	X29	Y29	Z29	X30	Y30	Z30	X31	Y31	Z31	X32	Y32	Z32	X33	Y33	Z33	X34	Y34	Z34	X35	Y35	Z35	X36	Y36	Z36	X37	Y37	Z37	X38	Y38	Z38	X39	Y39	Z39	X40	Y40	Z40	X41	Y41	Z41	X42	Y42	Z42	X43	Y43	Z43	X44	Y44	Z44	X45	Y45	Z45	X46	Y46	Z46	X47	Y47	Z47	X48	Y48	Z48	X49	Y49	Z49	X50	Y50	Z50	X51	Y51	Z51	X52	Y52	Z52	X53	Y53	Z53	X54	Y54	Z54	X55	Y55	Z55	X56	Y56	Z56	X57	Y57	Z57	X58	Y58	Z58	X59	Y59	Z59	X60	Y60	Z60	X61	Y61	Z61	X62	Y62	Z62	X63	Y63	Z63	X64	Y64	Z64	
813	13.533	0.0	1250.01021	7.654105012890054E-14	92.87318000000002	1337.18779	131.87061000000008	79.50594999999998	1334.04939	-142.2737999999999	60.559360000000005	1412.39298	108.62326000000009	49.516859999999994	1409.83577	-117.68972999999991	-63.988339999999994	1205.02658	60.32688000000008	-69.50959	1203.74798	-52.829609999999924	-62.41914	1284.35818	2.6734500000000825	-5.57936	1376.4177	-1.8016699999999153	58.75769	1477.8924	-7.206679999999913	119.14269	1569.77756	-12.61168999999991	387.24279	1614.12189	-21.329449999999927	261.99768	1714.72481	-23.36358999999991	188.65228	1653.75863	-18.423529999999907	290.65004	1526.76996	-14.471479999999923	307.15566	1750.35138	-25.16525999999991	555.78611	1855.08071	-59.57133999999992	486.10217	1797.13668	26.385750000000083	461.8668	1795.10254	-115.94617999999991	441.58348	1842.4109	-39.92732999999991	314.42046	1723.79128	191.6744300000001	297.7986	1699.49779	-241.3656499999999	415.31397	1445.28798	154.59490000000005	397.12292	1444.12561	96.76711000000006	390.96237	1421.80815	-205.62283999999994	371.72519	1418.61164	-148.20187999999993	505.04876	1206.6539	117.45725000000004	553.28702	1228.21582	127.97668000000004	379.74552	1439.82485	123.03662000000006	485.98593	1184.68515	-189.87275999999994	533.9336	1208.28121	-196.44013999999996	354.98709	1414.369	-175.86622999999994	647.38068	1075.94565	225.15062000000003	569.38581	1102.62199	168.42708000000002	545.3248	1170.09743	126.98867000000004	658.42318	1087.27873	-295.53198	572.46609	1095.00848	-245.02710999999996	533.9336	1152.89439	-200.21782999999996	30.97710000000001	1223.27575	162.7314800000001	325.05612	939.94863	102.63707000000004	323.89376	946.57413	22.898640000000036	353.35978	977.55122	62.47726000000004	9.996359999999989	1235.36438	-169.76379999999992	318.43063	963.83529	-208.64499999999998	330.75173	957.03543	-129.89458999999997	352.08117	995.85852	-167.78777999999997	373.3525	903.04346	55.32870000000003	236.42559	504.81629	87.41005000000001	230.84622	506.96667	20.80638000000002	342.3754	903.45028	-163.95195999999999	15.343249999999994	645.98584	-92.29198999999996	31.44205	652.20451	-27.664349999999963	172.03042	433.33067	34.987270000000024	334.70378	402.06298	-14.703949999999997	334.76189	380.96601	64.22081000000001	357.13747	386.08043	22.143100000000004	211.20221	424.20609	32.488180000000014	437.86391	365.39028	16.505619999999993	-60.26876	615.06686	-24.177249999999958	73.9847	508.30339	-2.0922599999999734	48.52884999999999	491.04223	-77.70427999999997	78.34358	484.06802	-40.91533999999998	-30.57027	588.09993	-28.01305999999996	138.7867	426.82141	-48.18013999999998	
814	13.55	0.0	1250.01021	7.654105012890054E-14	93.45436000000001	1337.01343	131.58002000000008	78.92476999999998	1334.22375	-142.50627999999992	61.024300000000004	1412.27674	108.56514000000008	49.051919999999996	1409.952	-117.68972999999991	-63.69774999999999	1204.96846	60.559360000000076	-69.74206	1203.80609	-52.53901999999992	-62.36103	1284.41629	2.9640400000000824	-5.57936	1376.4177	-1.6854299999999152	58.64145	1477.8924	-7.206679999999913	119.02645	1569.83568	-12.844159999999912	387.01032	1614.52872	-22.375579999999925	261.59085	1714.95728	-24.06100999999991	188.36168	1653.93298	-18.88846999999991	290.5338	1527.06055	-15.168899999999924	306.74883	1750.58385	-26.037039999999912	555.26304	1855.48754	-60.908069999999924	485.75346	1797.60163	25.16526000000008	461.28562	1795.39313	-117.10853999999992	441.06042	1842.75961	-41.089699999999915	314.47858	1724.13999	190.9188900000001	297.1593	1699.73027	-242.12118999999993	415.13962	1445.40422	154.36243000000005	396.83233	1444.00938	96.59275000000005	390.26495	1422.04063	-205.85531999999995	370.96965	1418.96035	-148.49246999999994	504.40946	1206.42142	117.80597000000004	552.64772	1227.92522	128.26727000000005	379.51305	1439.88297	122.86226000000006	485.23039	1184.91762	-189.58216999999993	533.17806	1208.45557	-196.09142999999995	354.28967	1414.65959	-176.15681999999995	646.62514	1075.77129	225.67369000000002	568.68839	1102.44763	168.95014000000003	544.6855	1169.86496	127.39550000000004	657.72576	1087.33685	-295.00892	571.71055	1095.12472	-244.56215999999998	533.11994	1153.06875	-199.81100999999998	30.51215000000001	1222.22962	162.6733600000001	311.45642	926.00022	101.88153000000004	310.1197	932.39324	22.20122000000004	341.21303	962.20797	61.547370000000036	9.76388999999999	1236.75922	-169.93815999999993	327.72957	976.91192	-212.42268999999996	340.51561	969.8796	-133.78851999999998	360.27586	1009.80693	-171.44922999999997	360.56646	889.21128	54.86375000000004	227.99842	489.47303	86.77075000000002	222.70965	491.50718	20.108960000000014	351.38375	916.52692	-167.43906999999996	23.072999999999993	661.09662	-94.38425999999995	39.17179	667.60588	-29.81472999999996	163.25454	418.27801	34.406080000000024	325.57919	386.08043	-15.750079999999997	325.75354	364.92534	63.11657	348.01289	369.92352	20.98074	202.36821	408.97907	31.790760000000013	428.62308	348.71031	15.110779999999995	-52.53902	630.58447	-26.03703999999996	81.65633	523.821	-3.545219999999973	56.14235999999999	506.21113	-79.04099999999997	85.95709	499.35316	-42.25206999999998	-22.840530000000005	603.61754	-29.814729999999965	146.34209	442.04843	-49.22626999999998	
815	13.567	0.0	1250.01021	7.654105012890054E-14	94.15178000000002	1336.83908	131.2313100000001	78.16922999999998	1334.45622	-142.79686999999993	61.60549000000001	1412.10238	108.50702000000008	48.354499999999994	1410.12636	-117.68972999999991	-63.40715999999999	1204.85223	60.84995000000008	-69.97453	1203.86421	-52.24842999999992	-62.36103	1284.35818	3.3127500000000825	-5.63748	1376.35958	-1.5110799999999152	58.52521	1477.95051	-7.206679999999913	118.79398	1569.8938	-12.960399999999911	386.71973	1614.87743	-23.421709999999926	261.18402	1715.18976	-24.64218999999991	188.01297	1654.04922	-19.237189999999906	290.35945	1527.29302	-15.924439999999924	306.28389	1750.87445	-26.792579999999912	554.7981	1855.83625	-62.12854999999992	485.28851	1798.00846	24.06101000000008	460.76255	1795.74184	-118.21278999999991	440.59547	1843.10832	-42.193949999999916	314.47858	1724.25623	190.2214700000001	296.40376	1699.96274	-242.76048999999992	414.90715	1445.3461	154.24619000000007	396.54174	1443.83502	96.53464000000005	389.56753	1422.2731	-206.20402999999993	370.27223	1419.25095	-148.84117999999995	503.88639	1206.18895	118.21279000000004	552.12465	1227.63463	128.61598000000006	379.28058	1439.76674	122.80415000000006	484.53297	1185.15009	-189.29157999999995	532.48064	1208.68804	-195.80083999999994	353.59225	1414.95018	-176.56364999999994	645.98584	1075.53882	226.19675000000004	568.10721	1102.21516	169.41509000000002	544.10431	1169.57437	127.80233000000004	657.08645	1087.51121	-294.54397	571.07124	1095.35719	-244.09720999999996	532.42252	1153.30122	-199.46229999999997	30.337800000000012	1221.41597	162.61524000000009	298.08919	913.27229	101.35846000000004	296.40376	919.3166	21.62004000000004	329.00817	948.02709	60.559360000000034	9.415179999999989	1238.03782	-170.05438999999993	336.73792	990.68598	-215.73543999999998	350.10515	983.59554	-137.21750999999998	368.23808	1024.51088	-174.58762999999996	347.60606	876.48335	54.63128000000003	218.00206	475.75709	86.65451000000002	213.062	477.61688	19.992720000000013	360.45022	930.41721	-170.51933999999997	32.25569999999999	675.10315	-96.41839999999996	48.3545	681.903	-31.848869999999962	152.677	405.08514	34.34797000000001	314.47858	371.37648	-16.447499999999998	314.76917	350.10515	62.41914	336.91227	354.92897	20.16708	191.67443	395.37937	31.616400000000013	417.23188	332.96022	14.006529999999994	-43.18196	644.53288	-27.954939999999958	91.3621	538.29248	-5.230649999999972	65.84813	520.39201	-80.72643999999997	95.7791	513.76652	-43.879379999999976	-13.425350000000002	617.62407	-31.61639999999996	156.33845	456.63615	-50.79546999999998	
816	13.583	0.0	1250.01021	7.654105012890054E-14	94.84920000000001	1336.66472	130.82448000000008	77.29744999999998	1334.6887	-143.0874599999999	62.128550000000004	1411.98615	108.39079000000008	47.59895999999999	1410.35883	-117.74784999999991	-63.00032999999999	1204.73599	61.14054000000008	-70.26513	1203.92233	-51.899719999999924	-62.36103	1284.35818	3.777690000000083	-5.6956	1376.35958	-1.2785999999999151	58.35086	1477.95051	-7.148559999999913	118.50339	1570.01003	-13.134749999999912	386.37102	1615.28426	-24.467839999999924	260.71907	1715.42223	-25.223379999999906	187.66426	1654.22357	-19.585899999999906	290.12697	1527.58361	-16.679979999999926	305.81894	1751.16504	-27.43187999999991	554.27503	1856.12684	-63.29091999999992	484.88168	1798.35717	23.014880000000083	460.12325	1795.97431	-119.25891999999992	440.07241	1843.45703	-43.240079999999914	314.47858	1724.31434	189.64029000000008	295.5901	1700.25333	-243.3997899999999	414.73279	1445.22986	154.24619000000007	396.30926	1443.60255	96.53464000000005	388.81199	1422.62181	-206.66896999999994	369.63292	1419.59966	-149.24800999999994	503.42145	1205.89836	118.56150000000004	551.71782	1227.34404	129.02281000000005	379.0481	1439.59238	122.74603000000006	483.83555	1185.4988	-189.00098999999994	531.84134	1209.03675	-195.56835999999996	352.89483	1415.2989	-176.97047999999995	645.46278	1075.30635	226.71982000000003	567.58414	1101.92457	169.88004000000004	543.63937	1169.28377	128.20916000000005	656.50527	1087.8018	-294.02091	570.43194	1095.64778	-243.69038999999998	531.78322	1153.64993	-199.11357999999998	30.45403000000001	1220.83478	162.55712000000008	284.95444	901.70673	101.12599000000004	282.68782	907.22798	21.38757000000004	316.80331	934.83421	59.745700000000035	8.950229999999989	1239.20019	-170.1125099999999	345.39756	1004.9831	-218.58323999999996	359.40409	997.95078	-140.18153999999998	375.73535	1039.7379	-177.37730999999997	334.52942	864.6272	54.51504000000003	206.55274	463.436	86.82887000000001	201.84515	465.12143	20.167080000000016	369.51669	945.06305	-173.19278999999997	42.77512999999999	688.12167	-98.45253999999996	58.8158	695.15399	-33.883019999999966	140.3559	393.51958	34.63856000000001	301.51818	357.89301	-16.912449999999996	301.86689	336.38921	61.89608	323.89376	341.03868	19.5859	179.2371	383.34886	31.732640000000014	403.92277	318.08192	13.018519999999995	-32.43006	657.02833	-29.930969999999956	102.92766	551.83406	-7.322919999999972	77.47181	533.70112	-82.76057999999998	107.46089	527.3081	-45.97163999999997	-2.4409700000000023	630.352	-33.650539999999964	168.4852	470.58456	-52.94584999999998	
